<svg xmlns="http://www.w3.org/2000/svg" id="Group_49" width="179.954" height="75.888" viewBox="0 0 179.954 75.888"><g id="Group_47" transform="translate(0 7.854)"><g id="Path_108"><path id="Path_22" data-name="Path 22" d="M0,0H12.312V15.292H26.2V0H38.514V41.625H26.2V25.676H12.312V41.625H0Z" fill="#fff"></path></g><g id="Path_109" transform="translate(71.551 4.469)"><path id="Path_23" data-name="Path 23" d="M170.091,45.165a12,12,0,0,1-2.848-8.413V26.806H163.3V18.788h3.943V10.2h11.962v8.588h6.353v8.018h-6.353v8.237a4.687,4.687,0,0,0,.789,3.067,3.444,3.444,0,0,0,2.717.92,8.1,8.1,0,0,0,4.119-1.139V46.7a17.263,17.263,0,0,1-3.593,1.183,21.582,21.582,0,0,1-4.732.394c-3.68-.044-6.485-1.052-8.413-3.111" transform="translate(-163.3 -10.2)" fill="#fff"></path></g><g id="Path_110" transform="translate(95.822 12.137)"><path id="Path_24" data-name="Path 24" d="M227.154,56.136A14.154,14.154,0,0,1,218.7,42.9a14.015,14.015,0,0,1,2.191-7.8,15.044,15.044,0,0,1,6.266-5.433,21.747,21.747,0,0,1,9.552-1.972,22.081,22.081,0,0,1,9.6,1.972,14.9,14.9,0,0,1,6.309,5.433,14.015,14.015,0,0,1,2.191,7.8,14.1,14.1,0,0,1-8.5,13.232,24.735,24.735,0,0,1-19.147,0M241,47.242a5.886,5.886,0,0,0,1.621-4.338,5.514,5.514,0,0,0-5.915-5.915,5.72,5.72,0,0,0-4.25,1.577,5.862,5.862,0,0,0-1.577,4.338,5.862,5.862,0,0,0,1.577,4.338,5.746,5.746,0,0,0,4.25,1.621A5.913,5.913,0,0,0,241,47.242" transform="translate(-218.696 -27.7)" fill="#fff"></path></g><g id="Path_111" transform="translate(133.725 12.181)"><path id="Path_25" data-name="Path 25" d="M305.2,28.676h11.48v2.8a12.111,12.111,0,0,1,4.338-2.717,15.307,15.307,0,0,1,5.258-.964c4.075,0,7.1,1.052,9.026,3.111s2.892,4.951,2.892,8.588V57.244H326.231V41.164a4.739,4.739,0,0,0-.876-3.067,3.354,3.354,0,0,0-2.76-1.052,6.022,6.022,0,0,0-5.477,3.2v17H305.2V28.676Z" transform="translate(-305.2 -27.8)" fill="#fff"></path></g><g id="Path_112" transform="translate(41.8 10.253)"><path id="Path_26" data-name="Path 26" d="M101.359,25.9A8.283,8.283,0,0,1,95.4,23.4V54.772a5.959,5.959,0,1,0,11.918,0h0V23.444a8.421,8.421,0,0,1-5.959,2.454" transform="translate(-95.4 -23.4)" fill="#fff"></path></g></g><g id="Group_48" transform="translate(41.804)"><g id="Path_113" transform="translate(0 6.266)"><path id="Path_27" data-name="Path 27" d="M11.874,20.259a5.965,5.965,0,0,1-5.959,5.959,5.959,5.959,0,1,1,5.959-5.959h0" transform="translate(0 -14.3)" fill="#e86000"></path></g><g id="Path_114" transform="translate(15.292 60.29)"><path id="Path_28" data-name="Path 28" d="M34.9,143.559a5.959,5.959,0,1,1,5.959,5.959,5.965,5.965,0,0,1-5.959-5.959h0" transform="translate(-34.9 -137.6)" fill="#e86000"></path></g><g id="Group_38" data-name="Group 38" transform="translate(33.081 54.725)"><path id="Path_29" data-name="Path 29" d="M88.776,135.332c0,3.33-2.541,5.433-6.528,5.433H79.662v3.856H75.5V129.9h6.748C86.235,129.855,88.776,131.958,88.776,135.332Zm-4.206,0c0-1.358-.876-2.147-2.585-2.147H79.662v4.294h2.322C83.693,137.435,84.57,136.647,84.57,135.332Z" transform="translate(-75.5 -127.708)" fill="#e86000"></path><path id="Path_30" data-name="Path 30" d="M110,127.8h3.987v15.6H110Z" transform="translate(-94.884 -126.529)" fill="#e86000"></path><path id="Path_31" data-name="Path 31" d="M136.505,137.4v11.392h-3.812v-1.227a4.468,4.468,0,0,1-3.374,1.4c-2.8,0-4.82-1.577-4.82-5.214V137.4h3.987v5.74c0,1.753.7,2.454,1.884,2.454s2.147-.789,2.147-2.673v-5.477h3.987Z" transform="translate(-103.03 -131.923)" fill="#e86000"></path><path id="Path_32" data-name="Path 32" d="M176.81,141.983v6.528h-3.987V142.64c0-1.621-.657-2.322-1.709-2.322-1.139,0-2.016.789-2.016,2.541v5.652h-3.987V142.64c0-1.621-.657-2.322-1.709-2.322-1.183,0-2.016.789-2.016,2.541v5.652H157.4V137.119h3.812V138.3a4.591,4.591,0,0,1,3.418-1.4,4.128,4.128,0,0,1,3.68,1.8,4.961,4.961,0,0,1,3.943-1.8C174.839,136.944,176.81,138.477,176.81,141.983Z" transform="translate(-121.515 -131.642)" fill="#e86000"></path><path id="Path_33" data-name="Path 33" d="M219.694,137.758a5.539,5.539,0,0,1-5.608,5.915,4.2,4.2,0,0,1-3.374-1.314V143.5H206.9V127.9h3.987v5.214a4.264,4.264,0,0,1,3.155-1.183A5.451,5.451,0,0,1,219.694,137.758Zm-4.031,0a2.427,2.427,0,1,0-2.41,2.717A2.439,2.439,0,0,0,215.663,137.758Z" transform="translate(-149.327 -126.586)" fill="#e86000"></path><path id="Path_34" data-name="Path 34" d="M238.8,127a2.205,2.205,0,0,1,2.454-2.1,2.175,2.175,0,0,1,2.454,2.059A2.472,2.472,0,0,1,238.8,127Zm.438,3.374h3.987v11.392h-3.987Z" transform="translate(-167.25 -124.9)" fill="#e86000"></path><path id="Path_35" data-name="Path 35" d="M266.537,141.983v6.528H262.55V142.64c0-1.621-.7-2.322-1.884-2.322-1.271,0-2.278.789-2.278,2.673v5.521H254.4V137.119h3.812v1.227a4.886,4.886,0,0,1,3.637-1.446C264.478,136.944,266.537,138.477,266.537,141.983Z" transform="translate(-176.014 -131.642)" fill="#e86000"></path></g><g id="Group_39" data-name="Group 39" transform="translate(125.181 60.027)"><path id="Path_36" data-name="Path 36" d="M298.669,137.175v9.333c0,4.294-2.454,6.353-6.7,6.353a10.221,10.221,0,0,1-5.652-1.49l1.446-2.8a6.731,6.731,0,0,0,3.856,1.227c2.147,0,3.067-.964,3.067-2.76v-.394A4.207,4.207,0,0,1,291.308,148a5.5,5.5,0,1,1,0-11,4.238,4.238,0,0,1,3.593,1.577v-1.4Zm-3.987,5.3a2.5,2.5,0,1,0-2.5,2.322A2.3,2.3,0,0,0,294.682,142.477Z" transform="translate(-285.7 -137)" fill="#e86000"></path></g><g id="Path_115" transform="translate(15.292)"><path id="Path_37" data-name="Path 37" d="M40.859,0A5.965,5.965,0,0,0,34.9,5.959V60.334a8.423,8.423,0,0,1,11.874-.044l.044.044V5.959A5.965,5.965,0,0,0,40.859,0Z" transform="translate(-34.9 0)" fill="#e86000"></path></g></g></svg>