<svg width="715" height="715" viewBox="0 0 715 715" fill="none" xmlns="http://www.w3.org/2000/svg">
<rect x="268" y="130" width="90" height="462.857" fill="#060A11"/>
<rect x="228.144" y="592.857" width="169.714" height="122.143" fill="#060A11"/>
<rect x="16" y="592.857" width="45" height="122.143" fill="#060A11"/>
<rect x="103.429" y="420.571" width="45" height="128.571" fill="#060A11"/>
<rect x="478.857" y="420.571" width="45" height="128.571" fill="#060A11"/>
<rect x="61" y="505.429" width="45" height="87.4286" fill="#060A11"/>
<rect x="520" y="505.429" width="45" height="87.4286" fill="#060A11"/>
<rect x="147.144" y="339.571" width="45" height="128.571" fill="#060A11"/>
<rect x="435.144" y="339.571" width="45" height="128.571" fill="#060A11"/>
<rect x="187" y="254.714" width="45" height="128.571" fill="#060A11"/>
<rect x="229.429" y="173.714" width="45" height="128.571" fill="#060A11"/>
<rect x="391.429" y="256" width="45" height="128.571" fill="#060A11"/>
<rect x="351.571" y="173.714" width="45" height="128.571" fill="#060A11"/>
<rect x="563.715" y="592.857" width="45" height="122.143" fill="#060A11"/>
<rect x="106" y="592.571" width="167.143" height="122.143" fill="#060A11"/>
<rect x="441.571" y="592.571" width="167.143" height="122.143" fill="#060A11"/>
<rect x="403" y="548.857" width="163.286" height="43.7143" fill="#060A11"/>
<rect x="151" y="548.857" width="163.286" height="43.7143" fill="#060A11"/>
<rect x="193.429" y="467.857" width="120.857" height="81" fill="#060A11"/>
<rect x="237.144" y="383" width="77.1429" height="84.8571" fill="#060A11"/>
<rect x="277" y="302" width="37.2857" height="81" fill="#060A11"/>
<rect x="403" y="302" width="37.2857" height="82.2857" fill="#060A11"/>
<rect x="403" y="383" width="77.1429" height="84.8571" fill="#060A11"/>
<rect x="403" y="467.857" width="120.857" height="81" fill="#060A11"/>
<rect x="313" y="130" width="90" height="462.857" fill="#F9FAFB"/>
<rect x="273.144" y="592.857" width="169.714" height="122.143" fill="#F9FAFB"/>
<rect x="61" y="592.857" width="45" height="122.143" fill="#F9FAFB"/>
<rect x="148.429" y="420.571" width="45" height="128.571" fill="#F9FAFB"/>
<rect x="523.857" y="420.571" width="45" height="128.571" fill="#F9FAFB"/>
<rect x="106" y="505.429" width="45" height="87.4286" fill="#F9FAFB"/>
<rect x="565" y="505.429" width="45" height="87.4286" fill="#F9FAFB"/>
<rect x="192.144" y="339.571" width="45" height="128.571" fill="#F9FAFB"/>
<rect x="480.144" y="339.571" width="45" height="128.571" fill="#F9FAFB"/>
<rect x="232" y="254.714" width="45" height="128.571" fill="#F9FAFB"/>
<rect x="274.429" y="173.714" width="45" height="128.571" fill="#F9FAFB"/>
<rect x="436.429" y="256" width="45" height="128.571" fill="#F9FAFB"/>
<rect x="396.571" y="173.714" width="45" height="128.571" fill="#F9FAFB"/>
<rect x="608.715" y="592.857" width="45" height="122.143" fill="#F9FAFB"/>
</svg>
